<?xml version="1.0"?>
<svg xmlns:rdf="http://www.w3.org/1999/02/22-rdf-syntax-ns#" xmlns="http://www.w3.org/2000/svg" xmlns:cc="http://web.resource.org/cc/" xmlns:dc="http://purl.org/dc/elements/1.1/" xmlns:svg="http://www.w3.org/2000/svg" id="svg2" viewBox="0 0 750 750" version="1.0">
  <defs id="defs5">
    <filter id="filter3466" y="-.12471" width="1.6146" x="-.3073" height="1.2494">
      <feGaussianBlur id="feGaussianBlur3468" stdDeviation="38.603654"/>
    </filter>
    <clipPath id="clipPath4444" clipPathUnits="userSpaceOnUse">
      <path id="path4446" d="m148.5 720.02c-7.57-0.85-16.12-4.27-29.77-11.89-5.91-3.3-11.55-6.26-12.54-6.57-2.1-0.67-21.503-19.57-25.19-24.54-1.375-1.85-3.4-5.07-4.5-7.15-10.224-19.34-10.654-20.35-11.557-27.28-0.508-3.9-1.384-9.34-1.946-12.09-2.224-10.87-3.789-32.36-3.314-45.5 1.032-28.56 0.275-58.9-1.635-65.5-0.477-1.65-1.116-6.68-1.42-11.17s-1.47-10.77-2.59-13.96c-1.121-3.19-2.038-6.98-2.038-8.43 0-1.44-0.696-4.83-1.547-7.53-0.85-2.7-1.956-7.39-2.457-10.41-0.502-3.02-1.425-8.65-2.052-12.5s-1.76-9.25-2.518-12c-3.1-11.25-7.1-29.85-7.957-37-0.33-2.75-1.279-8.15-2.11-12-2.59-12.01-5.521-29.64-6.4-38.5-0.464-4.68-1.41-11.88-2.103-16-1.954-11.63-1.676-53.94 0.44-67 1.876-11.58 6.05-27.12 10.068-37.5 0.851-2.2 1.568-5.08 1.592-6.4 0.024-1.31 1.619-5.66 3.544-9.67 1.925-4 3.5-8.1 3.5-9.11s2.044-5.88 4.542-10.83c2.497-4.94 5.831-12.59 7.408-16.99 7.397-20.64 10.109-26.98 12.794-29.87 3.439-3.72 6.099-7.77 8.419-12.83 3.294-7.19 31.097-32.78 38.527-35.47 1-0.36 2.94-1.44 4.32-2.39 2.26-1.56 25.14-10.94 26.69-10.94 0.36 0 3.49-1.138 6.96-2.529 3.48-1.391 8.24-2.924 10.58-3.407 2.34-0.484 7.6-1.845 11.69-3.025 10.69-3.087 30.62-3.216 50.44-0.325 8.17 1.193 17.09 2.969 19.81 3.947 4.74 1.705 5.14 1.705 9.63-0.006 5.28-2.009 13.56-3.976 23.19-5.508 7.54-1.2 14.86-2.654 24-4.772 3.58-0.828 8.84-1.883 11.69-2.346 2.86-0.463 5.7-1.151 6.31-1.53 2.21-1.365 26.9-2.878 46-2.819 19.05 0.059 35.47 1.281 43.5 3.237 2.2 0.536 7.6 1.233 12 1.548 4.4 0.316 10.02 0.993 12.5 1.505s7.65 1.461 11.5 2.109c20.98 3.532 27.73 5.067 35.05 7.98 4.69 1.866 5.31 1.899 8.73 0.47 2.02-0.847 10.55-2.539 18.95-3.762 20.24-2.946 40.07-2.839 50.84 0.272 4.09 1.18 9.35 2.541 11.69 3.025 2.34 0.483 7.1 2.016 10.58 3.407 3.47 1.391 6.6 2.529 6.96 2.529 1.55 0 24.43 9.38 26.69 10.94 1.38 0.95 3.32 2.03 4.32 2.39 7.43 2.69 35.23 28.28 38.53 35.47 2.32 5.06 4.98 9.11 8.42 12.83 2.68 2.89 5.39 9.23 12.79 29.87 1.58 4.4 4.91 12.05 7.41 16.99 2.5 4.95 4.54 9.82 4.54 10.83s1.58 5.11 3.5 9.11c1.92 4.01 3.52 8.36 3.54 9.67 0.03 1.32 0.74 4.2 1.6 6.4 4.01 10.38 8.19 25.92 10.06 37.5 2.12 13.06 2.4 55.37 0.44 67-0.69 4.12-1.63 11.32-2.1 16-0.88 8.86-3.81 26.49-6.4 38.5-0.83 3.85-1.78 9.25-2.11 12-0.86 7.15-4.86 25.75-7.96 37-0.75 2.75-1.89 8.15-2.51 12-0.63 3.85-1.55 9.48-2.06 12.5-0.5 3.02-1.6 7.71-2.45 10.41s-1.55 6.09-1.55 7.53c0 1.45-0.92 5.24-2.04 8.43s-2.28 9.47-2.59 13.96c-0.3 4.49-0.94 9.52-1.42 11.17-1.91 6.6-2.67 36.94-1.63 65.5 0.47 13.14-1.09 34.63-3.32 45.5-0.56 2.75-1.44 8.19-1.94 12.09-0.91 6.93-1.34 7.94-11.56 27.28-1.1 2.08-3.12 5.3-4.5 7.15-3.69 4.97-23.09 23.87-25.19 24.54-0.99 0.31-6.61 3.26-12.49 6.54-14.68 8.2-21.47 10.81-30.82 11.87-17.74 2.01-32.8-0.1-45-6.29-4.95-2.51-12.82-6.42-17.5-8.69-4.68-2.26-9.4-4.94-10.5-5.94s-3.35-2.5-5-3.34c-4.68-2.39-29.5-29.17-29.5-31.84 0-0.58-2.44-3.99-5.42-7.59-2.99-3.59-5.72-7.71-6.08-9.15-0.36-1.45-1.28-3.32-2.04-4.17-0.76-0.84-3.24-7.14-5.49-14-2.26-6.85-4.81-14-5.67-15.89s-2.2-7.72-2.98-12.97c-0.78-5.24-1.56-9.67-1.72-9.83s-3.3 0.83-6.97 2.22c-3.82 1.43-8.78 2.51-11.59 2.51-7.8 0-23.23-3.58-32.82-7.62-4.79-2.01-23.8-1.92-24.58 0.12-0.32 0.82-1.48 1.5-2.59 1.5s-4.83 1.32-8.28 2.94-10.84 4.14-16.43 5.6c-11.03 2.88-9.96 2.96-23.34-1.71-7.15-2.5-15.42-7.96-20.75-13.7-2.34-2.52-4.25-4.9-4.25-5.29 0-1.22-6.26-10.84-7.05-10.84-0.41 0-0.97 1.91-1.23 4.25-0.27 2.34-1.23 8.3-2.15 13.25-0.91 4.95-2.25 12.86-2.98 17.57-0.73 4.72-2.03 10.12-2.89 12-0.86 1.89-3.41 9.04-5.67 15.89-2.25 6.86-4.73 13.16-5.49 14-0.76 0.85-1.68 2.72-2.04 4.17-0.36 1.44-3.09 5.56-6.08 9.15-2.98 3.6-5.42 7.01-5.42 7.59 0 2.67-24.82 29.45-29.5 31.84-1.65 0.84-3.9 2.34-5 3.34s-5.82 3.68-10.5 5.94c-4.68 2.27-12.55 6.18-17.5 8.69-6.01 3.05-11.16 4.89-15.5 5.53-8.63 1.27-23.06 1.65-30.5 0.81z"/>
    </clipPath>
    <filter id="filter5532" y="-.5742" width="1.3703" x="-.18514" height="2.1484">
      <feGaussianBlur id="feGaussianBlur5534" stdDeviation="14.534775"/>
    </filter>
  </defs>
  <path id="path2239" d="m148.5 720.02c-7.57-0.85-16.12-4.27-29.77-11.89-5.91-3.3-11.55-6.26-12.54-6.57-2.1-0.67-21.503-19.57-25.19-24.54-1.375-1.85-3.4-5.07-4.5-7.15-10.224-19.34-10.654-20.35-11.557-27.28-0.508-3.9-1.384-9.34-1.946-12.09-2.224-10.87-3.789-32.36-3.314-45.5 1.032-28.56 0.275-58.9-1.635-65.5-0.477-1.65-1.116-6.68-1.42-11.17s-1.47-10.77-2.59-13.96c-1.121-3.19-2.038-6.98-2.038-8.43 0-1.44-0.696-4.83-1.547-7.53-0.85-2.7-1.956-7.39-2.457-10.41-0.502-3.02-1.425-8.65-2.052-12.5s-1.76-9.25-2.518-12c-3.1-11.25-7.1-29.85-7.957-37-0.33-2.75-1.279-8.15-2.11-12-2.59-12.01-5.521-29.64-6.4-38.5-0.464-4.68-1.41-11.88-2.103-16-1.954-11.63-1.676-53.94 0.44-67 1.876-11.58 6.05-27.12 10.068-37.5 0.851-2.2 1.568-5.08 1.592-6.4 0.024-1.31 1.619-5.66 3.544-9.67 1.925-4 3.5-8.1 3.5-9.11s2.044-5.88 4.542-10.83c2.497-4.94 5.831-12.59 7.408-16.99 7.397-20.64 10.109-26.98 12.794-29.87 3.439-3.72 6.099-7.77 8.419-12.83 3.294-7.19 31.097-32.78 38.527-35.47 1-0.36 2.94-1.44 4.32-2.39 2.26-1.56 25.14-10.94 26.69-10.94 0.36 0 3.49-1.138 6.96-2.529 3.48-1.391 8.24-2.924 10.58-3.407 2.34-0.484 7.6-1.845 11.69-3.025 10.69-3.087 30.62-3.216 50.44-0.325 8.17 1.193 17.09 2.969 19.81 3.947 4.74 1.705 5.14 1.705 9.63-0.006 5.28-2.009 13.56-3.976 23.19-5.508 7.54-1.2 14.86-2.654 24-4.772 3.58-0.828 8.84-1.883 11.69-2.346 2.86-0.463 5.7-1.151 6.31-1.53 2.21-1.365 26.9-2.878 46-2.819 19.05 0.059 35.47 1.281 43.5 3.237 2.2 0.536 7.6 1.233 12 1.548 4.4 0.316 10.02 0.993 12.5 1.505s7.65 1.461 11.5 2.109c20.98 3.532 27.73 5.067 35.05 7.98 4.69 1.866 5.31 1.899 8.73 0.47 2.02-0.847 10.55-2.539 18.95-3.762 20.24-2.946 40.07-2.839 50.84 0.272 4.09 1.18 9.35 2.541 11.69 3.025 2.34 0.483 7.1 2.016 10.58 3.407 3.47 1.391 6.6 2.529 6.96 2.529 1.55 0 24.43 9.38 26.69 10.94 1.38 0.95 3.32 2.03 4.32 2.39 7.43 2.69 35.23 28.28 38.53 35.47 2.32 5.06 4.98 9.11 8.42 12.83 2.68 2.89 5.39 9.23 12.79 29.87 1.58 4.4 4.91 12.05 7.41 16.99 2.5 4.95 4.54 9.82 4.54 10.83s1.58 5.11 3.5 9.11c1.92 4.01 3.52 8.36 3.54 9.67 0.03 1.32 0.74 4.2 1.6 6.4 4.01 10.38 8.19 25.92 10.06 37.5 2.12 13.06 2.4 55.37 0.44 67-0.69 4.12-1.63 11.32-2.1 16-0.88 8.86-3.81 26.49-6.4 38.5-0.83 3.85-1.78 9.25-2.11 12-0.86 7.15-4.86 25.75-7.96 37-0.75 2.75-1.89 8.15-2.51 12-0.63 3.85-1.55 9.48-2.06 12.5-0.5 3.02-1.6 7.71-2.45 10.41s-1.55 6.09-1.55 7.53c0 1.45-0.92 5.24-2.04 8.43s-2.28 9.47-2.59 13.96c-0.3 4.49-0.94 9.52-1.42 11.17-1.91 6.6-2.67 36.94-1.63 65.5 0.47 13.14-1.09 34.63-3.32 45.5-0.56 2.75-1.44 8.19-1.94 12.09-0.91 6.93-1.34 7.94-11.56 27.28-1.1 2.08-3.12 5.3-4.5 7.15-3.69 4.97-23.09 23.87-25.19 24.54-0.99 0.31-6.61 3.26-12.49 6.54-14.68 8.2-21.47 10.81-30.82 11.87-17.74 2.01-32.8-0.1-45-6.29-4.95-2.51-12.82-6.42-17.5-8.69-4.68-2.26-9.4-4.94-10.5-5.94s-3.35-2.5-5-3.34c-4.68-2.39-29.5-29.17-29.5-31.84 0-0.58-2.44-3.99-5.42-7.59-2.99-3.59-5.72-7.71-6.08-9.15-0.36-1.45-1.28-3.32-2.04-4.17-0.76-0.84-3.24-7.14-5.49-14-2.26-6.85-4.81-14-5.67-15.89s-2.2-7.72-2.98-12.97c-0.78-5.24-1.56-9.67-1.72-9.83s-3.3 0.83-6.97 2.22c-3.82 1.43-8.78 2.51-11.59 2.51-7.8 0-23.23-3.58-32.82-7.62-4.79-2.01-23.8-1.92-24.58 0.12-0.32 0.82-1.48 1.5-2.59 1.5s-4.83 1.32-8.28 2.94-10.84 4.14-16.43 5.6c-11.03 2.88-9.96 2.96-23.34-1.71-7.15-2.5-15.42-7.96-20.75-13.7-2.34-2.52-4.25-4.9-4.25-5.29 0-1.22-6.26-10.84-7.05-10.84-0.41 0-0.97 1.91-1.23 4.25-0.27 2.34-1.23 8.3-2.15 13.25-0.91 4.95-2.25 12.86-2.98 17.57-0.73 4.72-2.03 10.12-2.89 12-0.86 1.89-3.41 9.04-5.67 15.89-2.25 6.86-4.73 13.16-5.49 14-0.76 0.85-1.68 2.72-2.04 4.17-0.36 1.44-3.09 5.56-6.08 9.15-2.98 3.6-5.42 7.01-5.42 7.59 0 2.67-24.82 29.45-29.5 31.84-1.65 0.84-3.9 2.34-5 3.34s-5.82 3.68-10.5 5.94c-4.68 2.27-12.55 6.18-17.5 8.69-6.01 3.05-11.16 4.89-15.5 5.53-8.63 1.27-23.06 1.65-30.5 0.81z"/>
  <path id="path2237" d="m177.31 716.98c3.74-0.55 8.02-1.67 9.5-2.5s3.37-1.88 4.19-2.34c0.82-0.45 3.52-1.77 6-2.92s7.9-3.67 12.05-5.61c4.15-1.93 9.28-4.88 11.39-6.56s4.2-3.05 4.65-3.05c1.5 0 14.61-12.41 20.61-19.5 3.25-3.85 7.95-10.15 10.44-14 2.48-3.85 5.25-7.6 6.14-8.34 1.76-1.44 8.5-14.5 9.15-17.71 0.22-1.07 0.92-3.3 1.57-4.95s1.34-3.68 1.53-4.5c0.68-2.91 2.76-8.53 4.16-11.24 1.31-2.55 2.97-10.19 3.74-17.26 0.18-1.65 0.56-3.9 0.83-5 0.28-1.1 0.82-4.48 1.21-7.5s1.32-7.35 2.06-9.61c1.54-4.69 1.7-12.13 0.27-13.01-1.59-0.98-8.8-19.04-8.8-22.04 0-0.67-1.96-5.41-4.36-10.53-7.69-16.45-17.4-40.12-19.2-46.81-0.97-3.58-2.1-6.96-2.53-7.52-0.43-0.57-1.5-3.13-2.37-5.71-0.87-2.57-3.44-7.95-5.71-11.95s-4.78-8.86-5.58-10.8c-0.79-1.93-2.05-4.2-2.78-5.02-0.73-0.83-3.33-5.33-5.77-10-7.05-13.51-10.76-20.1-14.64-26-1.99-3.02-5.36-8.88-7.49-13s-4.87-9.08-6.08-11.01c-1.22-1.93-3.1-5.3-4.18-7.5-2.12-4.28-6.65-11.91-11.85-19.99-6.04-9.36-16.54-32.38-17.49-38.31-4.22-26.53-4.36-28.88-4.18-71.86 0.22-51.91 0.78-56.67 9.08-76.33 1.97-4.68 4.83-10.5 6.36-12.95 1.52-2.44 2.77-5.14 2.78-6 0-0.85 0.71-2.9 1.58-4.55 0.86-1.65 2.67-5.6 4.01-8.77 3.25-7.68 8.09-13.91 16.74-21.56 9.15-8.08 12.29-10.1 28.43-18.289 7.31-3.703 12.78-7.039 12.18-7.412-0.61-0.374-5.68-1.283-11.27-2.02-5.6-0.737-13.1-1.811-16.68-2.386-3.58-0.576-12.12-1.019-19-0.986-15.22 0.074-27.14 2.771-50.5 11.429-3.85 1.427-8.35 3.017-10 3.535-1.65 0.517-4.35 1.57-6 2.339-1.65 0.77-4.58 2.13-6.5 3.03-11.61 5.42-19.09 10.87-32.157 23.43-7.829 7.53-12.279 12.67-14.129 16.32-1.486 2.94-4.646 7.71-7.024 10.61-2.845 3.47-4.941 7.4-6.131 11.5-0.995 3.43-2.363 7.13-3.04 8.23s-2.467 5.58-3.977 9.96c-2.479 7.19-5.069 13.06-9.136 20.7-0.78 1.47-2.337 5.64-3.46 9.28-1.122 3.63-2.879 8.06-3.903 9.83-1.024 1.78-2.404 5.93-3.067 9.23-0.662 3.3-1.763 7.12-2.445 8.5-1.718 3.46-7.121 23.92-8.715 33-1.809 10.31-1.83 62.57-0.027 69.35 0.709 2.66 1.303 7.39 1.32 10.5s0.942 10.15 2.056 15.65 2.395 12.25 2.847 15 1.559 9.05 2.461 14 2.027 11.25 2.501 14c2.278 13.23 4.18 22.4 5.496 26.5 2.137 6.65 4.235 16.64 5.042 24 0.393 3.58 1.313 8.3 2.047 10.5 0.733 2.2 1.764 6.7 2.292 10 0.527 3.3 1.919 8.85 3.092 12.33 1.18 3.5 2.136 8.87 2.138 12 0.001 3.12 0.644 8.82 1.429 12.67 1.847 9.07 3.325 43.35 2.178 50.5-0.486 3.02-0.593 14.05-0.24 24.5s0.621 20.15 0.596 21.56c-0.026 1.41 0.87 6.81 1.992 12 1.121 5.19 2.438 12.55 2.927 16.34 0.522 4.06 1.687 7.99 2.822 9.52 1.064 1.44 2.274 3.73 2.69 5.1 0.417 1.36 1.717 3.83 2.891 5.48s3.033 4.8 4.132 7c2.407 4.82 23.622 26.19 27.932 28.14 1.69 0.77 5.32 2.68 8.07 4.26 4.66 2.68 13.43 7.17 21.42 10.97 5.98 2.85 26.63 3.95 39.39 2.11z" fill="#a68274"/>
  <path id="path2235" d="m152 708.23c0-1.72 1.11-2.16 8.17-3.26 4.5-0.7 9.34-1.87 10.75-2.61 1.42-0.74 4.03-1.35 5.8-1.35 4.01-0.01 11.92-2.64 15.43-5.13 1.46-1.03 3.41-1.88 4.32-1.88 1.65 0 6.65-3.41 11.37-7.75 2.89-2.66 5.16-2.92 5.16-0.59 0 2.06-6.16 7.65-10.94 9.93-1.96 0.94-4.46 2.17-5.56 2.75-7.13 3.71-10.12 4.76-16.01 5.59-3.65 0.52-7.16 1.35-7.81 1.86-0.65 0.5-4.56 1.45-8.68 2.11s-8.51 1.45-9.75 1.76c-1.77 0.44-2.25 0.13-2.25-1.43z"/>
  <path id="path2233" d="m133 706.5c0-0.82 0.68-1.5 1.5-1.5s1.5 0.68 1.5 1.5-0.68 1.5-1.5 1.5-1.5-0.68-1.5-1.5z"/>
  <path id="path2231" d="m216 676.5c0-0.82 0.68-1.5 1.5-1.5s1.5 0.68 1.5 1.5-0.68 1.5-1.5 1.5-1.5-0.68-1.5-1.5z"/>
  <path id="path2229" d="m277 576.5c0-0.82 0.68-1.5 1.5-1.5s1.5 0.68 1.5 1.5-0.68 1.5-1.5 1.5-1.5-0.68-1.5-1.5z"/>
  <path id="path2227" d="m274 552.5c0-0.82 0.68-1.5 1.5-1.5s1.5 0.68 1.5 1.5-0.68 1.5-1.5 1.5-1.5-0.68-1.5-1.5z"/>
  <path id="path2225" d="m272 539.5c0-0.82 0.68-1.5 1.5-1.5s1.5 0.68 1.5 1.5-0.68 1.5-1.5 1.5-1.5-0.68-1.5-1.5z"/>
  <path id="path2223" d="m265.98 526.43c-0.54-1.41-0.98-2.83-0.98-3.17 0-0.33-0.62-1.31-1.37-2.18s-2.29-4.06-3.41-7.08c-2.52-6.77-9.77-20.1-11.76-21.61-2.37-1.8-1.73-3.55 1.19-3.21 2.16 0.26 3.52 1.87 7.44 8.82 2.63 4.68 4.82 9.01 4.85 9.62 0.06 1.14 3.38 8.65 5.03 11.38 1.48 2.46 4.03 8.24 4.03 9.15 0 2.08-4.12 0.67-5.02-1.72z"/>
  <path id="path2221" d="m243 478.5c0-0.82 0.68-1.5 1.5-1.5s1.5 0.68 1.5 1.5-0.68 1.5-1.5 1.5-1.5-0.68-1.5-1.5z"/>
  <path id="path2219" d="m199 403.5c0-0.82 0.68-1.5 1.5-1.5s1.5 0.68 1.5 1.5-0.68 1.5-1.5 1.5-1.5-0.68-1.5-1.5z"/>
  <path id="path2217" d="m194 391.5c0-0.82 0.68-1.5 1.5-1.5s1.5 0.68 1.5 1.5-0.68 1.5-1.5 1.5-1.5-0.68-1.5-1.5z"/>
  <path id="path2215" d="m185 380.5c0-0.82 0.68-1.5 1.5-1.5s1.5 0.68 1.5 1.5-0.68 1.5-1.5 1.5-1.5-0.68-1.5-1.5z"/>
  <path id="path2213" d="m176.05 365.91c-4.49-6.2-11.05-19.47-11.05-22.35 0-4.95 2.55-2.33 7.42 7.63 2.7 5.53 5.96 11.3 7.25 12.83 1.28 1.52 2.33 3.49 2.33 4.37 0 2.91-2.93 1.68-5.95-2.48z"/>
  <path id="path2211" d="m163 329.5c0-0.82 0.68-1.5 1.5-1.5s1.5 0.68 1.5 1.5-0.68 1.5-1.5 1.5-1.5-0.68-1.5-1.5z"/>
  <path id="path2209" d="m163 318.5c0-0.82 0.68-1.5 1.5-1.5s1.5 0.68 1.5 1.5-0.68 1.5-1.5 1.5-1.5-0.68-1.5-1.5z"/>
  <path id="path2207" d="m160 306.5c0-0.82 0.68-1.5 1.5-1.5s1.5 0.68 1.5 1.5-0.68 1.5-1.5 1.5-1.5-0.68-1.5-1.5z"/>
  <path id="path2205" d="m597.82 714.92c7.41-3.4 16.25-7.9 21.68-11.03 2.75-1.58 6.65-3.59 8.67-4.46 4.56-1.97 25.42-23.3 27.69-28.32 0.9-2 2.59-4.98 3.76-6.62 1.16-1.65 2.46-4.11 2.88-5.49s1.65-3.76 2.73-5.29c1.12-1.6 2.34-5.67 2.83-9.5 0.48-3.69 1.78-10.96 2.9-16.15 1.13-5.19 2.02-10.59 2-12-0.03-1.41 0.24-11.11 0.59-21.56 0.36-10.45 0.25-21.48-0.24-24.5-1.14-7.15 0.33-41.43 2.18-50.5 0.78-3.85 1.43-9.55 1.43-12.67 0-3.13 0.96-8.5 2.14-12 1.17-3.48 2.56-9.03 3.09-12.33s1.56-7.8 2.29-10 1.66-6.92 2.05-10.5c0.81-7.36 2.9-17.35 5.04-24 1.32-4.1 3.22-13.27 5.5-26.5 0.47-2.75 1.59-9.05 2.5-14 0.9-4.95 2.01-11.25 2.46-14s1.73-9.5 2.84-15c1.12-5.5 2.04-12.54 2.06-15.65s0.61-7.84 1.32-10.5c1.8-6.78 1.78-59.04-0.03-69.35-1.59-9.08-6.99-29.54-8.71-33-0.68-1.38-1.78-5.2-2.45-8.5-0.66-3.3-2.04-7.45-3.06-9.23-1.03-1.77-2.78-6.2-3.91-9.83-1.12-3.64-2.68-7.81-3.46-9.28-4.06-7.64-6.65-13.51-9.13-20.7-1.51-4.38-3.3-8.86-3.98-9.96s-2.04-4.8-3.04-8.23c-1.19-4.1-3.29-8.03-6.13-11.5-2.38-2.9-5.54-7.67-7.02-10.61-1.85-3.65-6.3-8.79-14.13-16.32-13.07-12.56-20.55-18.01-32.16-23.43-1.92-0.9-4.85-2.26-6.5-3.03-1.65-0.769-4.35-1.822-6-2.339-1.65-0.518-6.15-2.108-10-3.535-11.92-4.415-14.64-5.276-26.5-8.369-9.63-2.512-13.53-3.014-24-3.09-6.88-0.05-16.32 0.562-21 1.36s-11.2 1.736-14.5 2.084c-9.02 0.953-11.58 1.572-10.92 2.644 0.77 1.236 11.17 5.865 13.19 5.865 1.35 0 6.31 2.26 26.73 12.18 15.04 7.31 22.9 13.43 27.06 21.07 0.82 1.51 1.85 2.75 2.28 2.75s1.69 1.69 2.8 3.75 2.52 4.65 3.14 5.75c2.34 4.16 8.22 17.49 8.22 18.65 0 1.3 1.48 6.22 3.56 11.85 0.71 1.92 2.03 6.65 2.93 10.5s2.09 8.58 2.64 10.5c1.61 5.6 2.28 53.05 0.89 63.5-0.65 4.95-1.57 12.38-2.04 16.5-1.46 12.8-6.79 28.28-17.03 49.5-2.66 5.5-6.53 14.01-8.59 18.91-2.07 4.91-4.72 10.08-5.9 11.5-2.02 2.46-5.29 8.38-8.88 16.09-3.14 6.73-12.3 23.53-14.95 27.42-2.71 3.98-5.92 10.39-11.56 23.08-1.71 3.85-3.55 7.68-4.09 8.5s-1.46 2.61-2.04 3.97c-0.58 1.35-1.57 3.09-2.2 3.84-0.63 0.76-1.26 2.14-1.4 3.06s-1.44 3.9-2.88 6.61c-3.01 5.66-5.32 12.06-5.84 16.18-0.19 1.56-0.93 4.86-1.64 7.34s-1.21 5.61-1.13 6.97c0.09 1.35-0.34 3.98-0.95 5.83-0.61 1.86-1.5 6.82-1.96 11.04-2 18.05-3.64 25.64-8.36 38.66-1.4 3.85-2.55 7.73-2.56 8.63-0.04 3.51-17.81 36.71-23.38 43.69l-5.7 7.15 1.5 9.31c0.82 5.13 2.68 12.45 4.12 16.27s3.89 10.77 5.43 15.45c3.26 9.85 8.17 19.93 10.94 22.44 1.06 0.96 3.42 4.22 5.25 7.24 6.29 10.43 28.39 34.32 31.73 34.32 0.45 0 2.54 1.37 4.65 3.05s7.24 4.63 11.39 6.56c4.15 1.94 9.57 4.46 12.05 5.61s5.18 2.47 6 2.92c0.82 0.46 2.75 1.53 4.28 2.39 4.49 2.51 13.24 3.4 29.04 2.96 12.47-0.35 15.55-0.76 19.5-2.57z" fill="#a68274"/>
  <path id="path2203" d="m548 703.5c0-0.82 0.68-1.5 1.5-1.5s1.5 0.68 1.5 1.5-0.68 1.5-1.5 1.5-1.5-0.68-1.5-1.5z"/>
  <path id="path2201" d="m533 698.5c0-0.82 0.68-1.5 1.5-1.5s1.5 0.68 1.5 1.5-0.68 1.5-1.5 1.5-1.5-0.68-1.5-1.5z"/>
  <path id="path2199" d="m517.41 692.5c-1.38-1.38-2.86-2.5-3.3-2.5-0.77 0-5.99-5.68-15.27-16.62-9.76-11.51-11.69-14.23-13.91-19.63-0.62-1.51-1.46-2.75-1.87-2.75-0.79 0-3.06-4.47-3.06-6.05 0-1.83 3.87-0.93 4.5 1.05 0.35 1.1 1.01 2 1.47 2s1.34 1.24 1.96 2.75c2.46 5.99 7.34 12.43 21.65 28.61 1.88 2.13 3.42 4.19 3.42 4.58 0 0.4 1.21 1.36 2.69 2.14 3.62 1.91 7.31 5.68 7.31 7.47 0 2.25-2.82 1.72-5.59-1.05z"/>
  <path id="path2197" d="m475 634.5c0-0.82 0.68-1.5 1.5-1.5s1.5 0.68 1.5 1.5-0.68 1.5-1.5 1.5-1.5-0.68-1.5-1.5z"/>
  <path id="path2195" d="m470 620.5c0-0.82 0.68-1.5 1.5-1.5s1.5 0.68 1.5 1.5-0.68 1.5-1.5 1.5-1.5-0.68-1.5-1.5z"/>
  <path id="path2193" d="m466 604.5c0-0.82 0.68-1.5 1.5-1.5s1.5 0.68 1.5 1.5-0.68 1.5-1.5 1.5-1.5-0.68-1.5-1.5z"/>
  <path id="path2191" d="m500 470.5c0-0.82 0.68-1.5 1.5-1.5s1.5 0.68 1.5 1.5-0.68 1.5-1.5 1.5-1.5-0.68-1.5-1.5z"/>
  <path id="path2189" d="m504.44 459.49c0.77-4.1 1.93-6.82 11.36-26.49 3.56-7.42 7.46-14.85 8.66-16.5s2.48-3.79 2.83-4.75c0.36-0.96 1.39-1.75 2.3-1.75 2.3 0 1.22 5.06-1.99 9.3-1.33 1.76-5.42 9.5-9.08 17.2-3.67 7.7-7.31 15.35-8.11 17s-1.81 4.35-2.25 6c-0.45 1.68-1.6 3.15-2.61 3.35-1.58 0.3-1.72-0.13-1.11-3.36z"/>
  <path id="path2187" d="m533 400.5c0-0.82 0.68-1.5 1.5-1.5s1.5 0.68 1.5 1.5-0.68 1.5-1.5 1.5-1.5-0.68-1.5-1.5z"/>
  <path id="path2185" d="m348.44 594.54c5.21-1.35 11.72-3.6 14.48-5s5.93-2.54 7.05-2.54 2.03-0.65 2.03-1.44c0-0.94 1.29-1.55 3.69-1.75 3.29-0.28 3.79-0.69 4.59-3.81 0.5-1.92 1.42-4.13 2.06-4.9 0.79-0.96 1.26-9.32 1.49-26.25l0.32-24.85h-4.17c-10.74 0-26.22-7.44-39.48-18.98-11.34-9.87-15.26-14.72-20.79-25.79-6.61-13.19-7.75-18.6-5.15-24.37 1.36-3 3.02-4.63 6.59-6.44 2.63-1.33 5.73-2.42 6.88-2.42 1.16 0 3.08-0.55 4.29-1.21 5.41-3.01 24.98-4.2 69.68-4.25l36.5-0.04 6.3 3.42c8.56 4.64 11.57 8.3 10.69 13-0.89 4.81-6.75 16.58-9.49 19.08-0.3 0.28-2.12 2.52-4.03 4.98-1.91 2.47-4.26 5.28-5.22 6.25s-1.75 2.22-1.75 2.78c0 1.27-25.61 27.12-29.06 29.33-3.42 2.19-11.67 4.64-15.69 4.65l-3.25 0.01v23.44c0 14.55-0.38 23.68-1 24.06-0.55 0.34-1 1.86-1 3.37s-0.66 3.62-1.47 4.69c-2.82 3.73-1.95 4.44 5.44 4.44 3.83 0 8.44 0.64 10.25 1.41 6.43 2.78 16.88 5.59 20.74 5.59 2.16 0 4.24 0.51 4.62 1.13 1.08 1.75 12.43 0.32 18.62-2.34 7.12-3.05 8.59-4.25 13.92-11.29 5.16-6.81 19.84-35.2 20.95-40.5 0.9-4.3 2.7-9.57 4.54-13.33 0.76-1.56 1.39-3.73 1.39-4.82s0.45-2.82 1-3.85c0.94-1.76 1.89-7.72 3.96-25 0.5-4.12 1.35-9.08 1.89-11s1.43-6.2 1.97-9.5c2.06-12.55 4.59-21.03 8.41-28.23 1.52-2.88 2.77-6.14 2.77-7.25s0.38-2.02 0.84-2.02c0.71 0 6.19-10.46 10.73-20.5 0.75-1.65 2.27-5.02 3.4-7.5 1.12-2.48 3.05-6.18 4.28-8.22 7.04-11.67 11.75-20.19 11.75-21.27 0-0.68 1.35-2.93 3-5.01s3-4.5 3.01-5.39c0-0.88 0.74-2.96 1.64-4.61s2.48-4.69 3.52-6.75c1.03-2.06 2.26-3.75 2.73-3.75 1.03 0 7.06-12.21 10.41-21.06 1.33-3.54 3.38-8.02 4.55-9.94 3.6-5.95 9.14-19.16 9.14-21.81 0-0.7 0.85-2.94 1.88-4.98 5.39-10.61 8.62-35.26 8.47-64.71-0.15-28.75-2.31-45.11-7.63-57.67-0.85-2.02-1.33-3.89-1.05-4.16 0.27-0.28-0.03-1.48-0.67-2.67-0.64-1.2-1.38-3.37-1.64-4.84-0.44-2.43-5.29-13.57-7.46-17.16-0.5-0.82-1.46-2.62-2.12-4-2.53-5.27-16.13-20.66-19.08-21.6-1.12-0.35-4.42-2.16-7.32-4.02-2.91-1.86-5.53-3.38-5.83-3.38s-6.21-2.7-13.13-6-13.22-6-14-6-4.27-1.35-7.76-3c-3.5-1.65-6.82-3-7.38-3-0.57 0-3.45-1.067-6.41-2.371-5.93-2.617-11.44-4.08-23.19-6.158-4.31-0.761-8.68-1.654-9.72-1.985-2.47-0.783-13.9-2.342-26.46-3.608-5.5-0.555-11.58-1.446-13.5-1.98-6.71-1.86-23.62-3.156-42-3.216-18.26-0.059-42.83 1.479-45 2.817-0.61 0.379-3.45 1.067-6.31 1.53-2.85 0.463-8.11 1.518-11.69 2.346-9.04 2.093-15.87 3.396-27.5 5.244-5.5 0.873-11.8 2.247-14 3.052-2.2 0.804-6.48 2.138-9.5 2.963s-9.78 3.561-15 6.079c-27.54 13.267-42.03 25.797-48.91 42.287-1.26 3.02-2.7 5.93-3.19 6.45-0.5 0.52-0.9 1.65-0.9 2.5 0 1.25-6.8 16.12-11.15 24.38-1.89 3.57-4.67 14.3-5.78 22.2-0.65 4.72-1.18 25.73-1.28 51-0.13 34.85 0.15 45.24 1.47 54.97 0.9 6.6 1.84 13.97 2.11 16.37 0.27 2.55 3 9.5 6.55 16.71 3.34 6.78 6.08 12.77 6.08 13.3s1.04 2.24 2.3 3.79c2.04 2.5 13.24 21.36 15.04 25.33 0.38 0.82 1.72 3.3 2.99 5.5 1.26 2.2 4.02 7.15 6.12 11s5.72 9.92 8.04 13.5 7.02 11.89 10.45 18.47c3.44 6.58 7.78 14.28 9.65 17.1 1.88 2.83 3.41 5.73 3.41 6.45s1.31 3.37 2.91 5.89c4.17 6.57 13.09 26.48 13.09 29.23 0 0.76 0.93 3.86 2.07 6.87 1.15 3.02 2.48 6.77 2.96 8.34 0.49 1.56 1.27 3.36 1.75 4 0.47 0.63 2.34 4.75 4.15 9.15 1.8 4.4 4.31 10.25 5.57 13 4.81 10.52 6.29 14.23 8.55 21.5 1.28 4.12 2.92 8.62 3.64 10 0.71 1.38 1.3 2.98 1.3 3.56 0.01 0.59 1.41 2.39 3.11 4 3.02 2.86 9.9 12.74 9.9 14.21 0 1.32 7.51 8.65 12.06 11.78 6.57 4.52 18.9 9.31 24.18 9.4 1.5 0.03 6.99-1.06 12.2-2.41z" fill="#a68274"/>
  <path id="path4448" filter="url(#filter5532)" fill="#7b5548" d="m301.83 250.57c4.11-11.72 13.46-20.03 22.21-28.41 8.13-7.7 19-10.76 28.57-16.09l6.56 23.28c-8.59 0.35-15.81 2.67-23.29 7.37-7.22 5.58-12.83 11.34-16.5 19.98l-17.55-6.13zm146.33 1.48c-8.32-2.22-15.85-6.51-23.5-10.34-4.03-1.8-10.9-3.87-13.82-4.78l1.26-27.88c12.31-1.07 16.82 2.75 24.91 11.22 8.22 5.45 16.17 10.81 21.84 19.11l-10.69 12.67z"/>
  <path id="path2183" d="m323.01 431.86c0.01-1.44 4.34-3.86 6.94-3.87 0.85 0 2.9-0.72 4.55-1.59s7.28-1.98 12.5-2.45c5.22-0.48 12.2-1.3 15.5-1.82 8.25-1.32 58.5-1.43 58.5-0.13 0 0.64-9.36 1-26.07 1-15.02 0-26.83 0.41-27.88 0.98-1.01 0.53-6.94 1.27-13.19 1.63s-11.81 1-12.36 1.41-2.58 1.08-4.5 1.48-3.95 1.07-4.5 1.48-2.2 1.03-3.66 1.38-3.37 0.91-4.25 1.24c-0.97 0.38-1.59 0.09-1.58-0.74z"/>
  <path id="path2181" d="m418.76 290.58c-7.86-2.81-12.74-7.92-14.75-15.48-2.14-8.05 1.85-17.62 9.37-22.49 15.56-10.09 35.69 4.09 31.62 22.27-1.6 7.18-8.31 14.21-15.22 15.95-5.71 1.43-6.33 1.42-11.02-0.25z"/>
  <path id="path2179" d="m417.81 260.74c0.4-2.07-2.49-3.46-4.01-1.94s-0.13 4.41 1.94 4.01c0.95-0.18 1.89-1.12 2.07-2.07z" fill="#fff"/>
  <path id="path2177" d="m343.56 287.75c-2.49-0.65-5.68-2.78-8.65-5.74-9.99-10-8.43-24.68 3.44-32.38 15.63-10.14 35.95 4.46 31.57 22.68-1.63 6.83-8.48 13.84-15.14 15.52-5.34 1.34-5.87 1.34-11.22-0.08z"/>
  <path id="path2175" d="m345.81 259.74c0.4-2.07-2.49-3.46-4.01-1.94s-0.13 4.41 1.94 4.01c0.95-0.18 1.89-1.12 2.07-2.07z" fill="#fff"/>
  <path id="path2173" d="m469.52 228.45c-1.9-1.95-4.25-3.72-5.24-3.92-0.98-0.2-6.6-2.66-12.48-5.45-5.89-2.79-12.05-5.08-13.69-5.08-1.65 0-3.27-0.45-3.61-1s-3.49-1-7-1c-6.59 0-7.97-0.62-6.53-2.95 0.65-1.06 2.91-1.23 10.18-0.77 8.08 0.51 10.64 1.16 18.85 4.78 5.22 2.3 11.97 5.23 15 6.51 5.89 2.49 11.62 8.38 10.64 10.94-0.89 2.3-2.37 1.8-6.12-2.06z"/>
  <path id="path2171" d="m287 228.95c0-3.96 12.48-12.88 20.22-14.44 1.81-0.36 5.08-1.25 7.28-1.96 5.47-1.78 13.14-3.55 15.39-3.55 1.03 0 2.38 0.62 3 1.37 1.68 2.02-0.41 3.28-6.89 4.13-3.02 0.4-7.02 1.35-8.87 2.11-1.86 0.76-4.21 1.39-5.22 1.39-3.57 0-13.32 5.09-17.29 9.03-4.43 4.38-7.62 5.19-7.62 1.92z"/>
  <path id="path2169" d="m325 473.5c0-0.82-0.68-1.5-1.5-1.5s-1.5 0.68-1.5 1.5 0.68 1.5 1.5 1.5 1.5-0.68 1.5-1.5z" fill="#fff"/>
  <path id="path2167" d="m322 463.5c0-0.82-0.68-1.5-1.5-1.5s-1.5 0.68-1.5 1.5 0.68 1.5 1.5 1.5 1.5-0.68 1.5-1.5z" fill="#fff"/>
  <path id="path2165" d="m331.5 456.34c2.1-1.15 6.01-1.72 13-1.9 5.5-0.15 11.01-0.3 12.25-0.35 1.38-0.06 2.25-0.72 2.25-1.72 0-1.45-1.5-1.57-13.75-1.11-14.38 0.53-19.23 1.79-19.24 4.99-0.01 2.18 1.63 2.21 5.49 0.09z" fill="#fff"/>
  <path id="path2161" d="m369 451.5c0-0.82-0.68-1.5-1.5-1.5s-1.5 0.68-1.5 1.5 0.68 1.5 1.5 1.5 1.5-0.68 1.5-1.5z" fill="#fff"/>
  <path id="path2247" filter="url(#filter3466)" clip-path="url(#clipPath4444)" fill="#7b5548" d="m197.38 120.64c-7.15 5.83-9.82 13.45-11.29 22.16-4.42 7.87-2.43 17.18-1.89 25.13 1.82 9.14 1.15 18.37-0.18 27.44-2.48 7.33-0.49 13.67-1.98 21.08 3.65 9.12 3.02 19.31 2.79 29.13-2.48 7.38-1.24 14.04-3.17 21.29 2.13 4.78 4.65 9.31 7.29 13.8 4.1 8.14 9.22 16.03 13.04 25.23 0.17 8.15 1.65 19.54 6.75 26.11 1.7 9.11 4.6 16.53 5.22 26.05 2.76 4.08 4.69 8.46 6.7 12.92 3.61 7.61 7.7 14.62 10.49 22.2 5.63 4.71 9.79 10.35 13.61 15.92 4.63 9.21 12.2 15.76 14.59 25.65 4.98 7.77 9.15 16.82 10.91 25.87 4.08 7.49 6.94 14.08 10.2 21.04 4.35 9.24 7.62 19.07 10.35 29.52 1.08 8.59 3.86 17.02 4.81 25.3 0.91 10.53 1.93 21.22 0.68 31.58 0.87 10.61-4.68 18.83-4.65 29.24-2.87 7.75-5.14 15.91-7.23 23.4-2.2 8.08-5.23 16.57-5.98 25.7-3.36 7.64-7.08 14.52-7.12 23.1-6.16 14.34-11.47 25.23-24.72 34.57-8.46 7.34-22.71 11.43-33.21 13.38-8.04 0.61-13.02 4.46-20.07 6.67-9.64 2.9-19.04 7.15-29.08 9.21-11.82 0.85-22.02 4.04-34.17 1.8-17.17 0.77-31.4-13.84-39.863-27.69-2.543-8.6-8.287-15.92-11.871-23.82-3.061-9.07-7.655-17.54-10.07-26.42-3.019-8.45-7.037-16.14-9.215-24.88-3.804-7.37-3.407-15.22-6.204-21.96-5.934-10.12-5.259-22.61-5.102-33.42 2.617-8.94 0.222-12.19 2.998-20.77-1.04-8.14-0.427-8.55 6.22-14.27l17.191-6.18c8.299 1.64 9.843 1.42 13.512 8.37 10.11 6.93 9.415 18.66 12.974 29.14 1.14 8.09 0.56 12.56 1.15 15.21 6.06 7.48 7.2 16.96 10.12 25.81 3.49 7.33 4.79 15.17 8.34 22.66 3.47 6.27 5.98 14.75 9.52 21.06 3.58 7.08 5.01 14.54 11.24 20.18-0.96 0.29-1.84 1.77-6.4 1.95 4.09-0.97 12.12-0.91 17.68-3.27 6.02-1.8 13.28-1.69 18.71-4.33 8.62-4.75 18.39-7.4 27.94-9.74 4.93-1.65 15.84-5.16 15.35-1.54 0.35-2.85 0.65-5.75 1.54-8.49 4.84-7.31 5.26-15.97 7.56-23.83 2-7.31 6.26-14.34 5.48-22.88 1.96-7.66 5.17-15.15 7.53-22.13 0.98-5.73 2.46-12.99 3.47-19.67-0.28-5.99 1.63-12.26-0.16-18.3-1.61-7.54-1.37-15.56-3.79-23.01-1.57-6.19-2-11.56-5.49-16.49-4.05-8.11-8.09-16.73-9.28-25.89-4.04-6.96-6.45-13.56-8.23-20.95-4.35-5.85-7.47-11.73-12.08-17.99-5.39-5.83-12.44-13.9-14.16-23.47-6.62-6.31-8.51-15.6-14.4-22.82-4.37-8.87-9.56-17.79-7.26-27.95-3.16-7.89-3.21-15.68-6.72-23.7 0.85-9.31 0.05-18.28-3.59-26.04 0.08-7.21-1.45-11.08-6.65-17.49-3.86-10.83-7.62-21.64-4.63-33.26-2.93-11.21 2.14-18.93 4.25-29.38 3.86-7.54 4.01-13.96 6.5-21.97-2.23-10.45 4.04-18.04 6.62-27.52 3.93-7.56 7.36-14.4 10.7-22.52 3.71-7.43 9.87-15.05 10.64-24.01 4.28-7.92 6.49-16.18 13.42-22.64l1.82 1.82zm363.76 15.05c5.61 6.78 12.3 12.23 17.39 18.92 7.29 6.36 9.36 15.85 13.91 25.02-0.8 9.4 1.1 19.01 0.42 28.02-2.01 8.22-0.17 17.67-0.95 25.64 0.31 9.89-3.61 17.97-4.06 28.1-4.74 7.37-5.14 17.56-7.57 25.66-1.1 8.73-4.57 15.85-5.59 24.54-8.01 5.96-5.85 16.26-6.28 24.96-0.27 8.46 0.04 17.15-4.88 24.5-0.12 9.25-5.58 17.6-9.64 25.22-0.03 8.36-3.48 13.79-3.79 22.65-1.44 9.36-6.05 16.22-7.63 25.52-3.87 8.11-6.45 12.1-6.79 21.37-2.74 8.82-6.33 13.84-7.03 23.2-2.86 7.43-4.48 17.44-7.53 24.71-1.53 6.87-3.12 14.84-3.56 23.07-2.1 5.96-5.35 11.5-5.92 16.7 3.35 7.44 1.7 14.49 3.76 21.83 2.03 8.07 4.58 15.31 7.09 22.24 2.37 6.09 6.09 14.69 7.89 21.38 0.69 7.52 3.97 13.2 6.22 18.42 1.01 4.04 4.59 4.23 5.91 5.46 3.91 3.54 11.45 5.69 16.96 8.78 6.91 4.96 12.99 8.87 20.12 12.57 5.17 2.02 9.45 1.83 13.17 2.83-5.66 0.52-10.99 2.86-16.44 4.47 8.77-14.06 20.06-24.81 36.59-28.74 8.89-3.92 17.94-2.91 26.99-2.47 8.77 5.83 14.84 7.58 24.55 1.93 9.38-6.93 9.17-10.71 21.53-4.14l0.92 1.36c4.07 12.68-0.12 12.93-8.62 21.21-11.2 9.18-13.55 16.56-21.51 28.69-8.4 2.75-12.16 7.69-19.52 11.46 0.71 3.11 9.84-5.58 1.5 6.6-14.39 19.87-30.51 32.56-56.26 31.43-10.96-4.06-23.84-2.98-32.69-11.5-9.22-1.98-17.03-7.99-24.69-12.14-8.23-3.76-17.83-10.19-26.55-14.93-8.43-11.01-21.81-17.55-26.51-31.9-4.96-9.51-7.67-19.5-10.74-29.3-2.72-8.87-2.87-19.18-6.94-28.27 0.76-9.4-1.64-18.41 1.49-27.58-2.95-9.99-0.89-20.5 0.84-30.4-2.64-11.96 2.44-20.24 4.27-31.12 1.75-7.86 6.06-16.46 5.93-25.77 2.52-7.83 7.6-14.56 7.27-23.08 4.01-8.14 6.85-15.07 9.36-23.31 5.13-9.05 7.83-17.92 12.33-26.71 5.56-5.64 5.15-12.14 8.98-19.3 5.54-8.21 7.56-15.86 13.63-23.38 1.84-8.25 7.39-13.55 11.89-20.37 1.47-7.46 3.22-15.64 8.14-22.2 4.41-8.32 12.67-15.98 13.24-25.34 5.09-6.24 5.22-13.28 8.77-20.7 2.05-8.4 7.43-17.04 7.74-25.83 4.2-7.12 4.31-14.62 4.2-22.57-0.54-8.38 1.72-17.51 0.83-25.97-0.15-7.79 2.78-15.55 0.07-23.32 0.44-8.6-5.08-12.5-9.26-19.34-4.17-7.6-6.16-15.95-11.18-23.29l8.23-5.49z"/>
  <metadata>
    <rdf:RDF>
      <cc:Work>
        <dc:format>image/svg+xml</dc:format>
        <dc:type rdf:resource="http://purl.org/dc/dcmitype/StillImage"/>
        <cc:license rdf:resource="http://creativecommons.org/licenses/publicdomain/"/>
        <dc:publisher>
          <cc:Agent rdf:about="http://openclipart.org/">
            <dc:title>Openclipart</dc:title>
          </cc:Agent>
        </dc:publisher>
        <dc:title>dog face 4</dc:title>
        <dc:date>2006-11-30T05:20:05</dc:date>
        <dc:description>the main version uses blur, use the no blur version if this causes problems.</dc:description>
        <dc:source>http://openclipart.org/detail/1687/dog-face-4-by-zeimusu</dc:source>
        <dc:creator>
          <cc:Agent>
            <dc:title>zeimusu</dc:title>
          </cc:Agent>
        </dc:creator>
        <dc:subject>
          <rdf:Bag>
            <rdf:li>brown</rdf:li>
            <rdf:li>cartoon</rdf:li>
            <rdf:li>clip art</rdf:li>
            <rdf:li>clipart</rdf:li>
            <rdf:li>dog</rdf:li>
            <rdf:li>face</rdf:li>
            <rdf:li>head</rdf:li>
            <rdf:li>remix</rdf:li>
            <rdf:li>worldlabel</rdf:li>
          </rdf:Bag>
        </dc:subject>
      </cc:Work>
      <cc:License rdf:about="http://creativecommons.org/licenses/publicdomain/">
        <cc:permits rdf:resource="http://creativecommons.org/ns#Reproduction"/>
        <cc:permits rdf:resource="http://creativecommons.org/ns#Distribution"/>
        <cc:permits rdf:resource="http://creativecommons.org/ns#DerivativeWorks"/>
      </cc:License>
    </rdf:RDF>
  </metadata>
</svg>
